<?xml version="1.0" encoding="UTF-8"?>
<svg version="1.1" xmlns="http://www.w3.org/2000/svg" width="1067" height="1067">
<path d="M0 0 C1.2402357 0.61276352 2.47722208 1.2321307 3.71156192 1.85668564 C4.39913451 2.19859137 5.08670711 2.5404971 5.79511523 2.89276361 C8.10684209 4.04414234 10.4141794 5.20405494 12.72164416 6.36394882 C14.39141079 7.19782029 16.0614402 8.03116571 17.73170996 8.86402893 C22.32743278 11.1575573 26.91937007 13.45857615 31.51073527 15.76081276 C36.46015406 18.24096138 41.41302355 20.714201 46.36547351 23.18828964 C56.06852886 28.03699746 65.7683771 32.89208796 75.46718338 37.74928856 C86.75199021 43.40044837 98.04000795 49.04518019 109.32818779 54.68959856 C129.46101797 64.75685809 149.59101939 74.82976096 169.71938586 84.90594101 C189.27149676 94.69364746 208.82543129 104.47769763 228.38149524 114.25750351 C229.28548208 114.70958057 229.28548208 114.70958057 230.20773128 115.17079049 C232.63735653 116.38582754 235.06698315 117.60086184 237.49660985 118.81589599 C238.70733133 119.42136692 239.91805263 120.02683822 241.12877375 120.63230988 C242.33647601 121.23627169 243.54417879 121.84023247 244.75188209 122.4441922 C263.96474925 132.05238173 283.17602368 141.66375508 302.38702811 151.27566838 C309.14229892 154.65552456 315.89777086 158.03497836 322.65338114 161.41415596 C333.36527492 166.77231501 344.07650241 172.13180117 354.78635862 177.49403191 C359.68311763 179.94572424 364.58018978 182.39678544 369.4781177 184.84614182 C373.95439356 187.08467117 378.42974778 189.32503152 382.90434465 191.56691504 C384.5303676 192.38118792 386.15673319 193.194777 387.78345981 194.00764322 C389.98029513 195.10551885 392.17590466 196.20580674 394.37119937 197.30675888 C395.01529868 197.6279238 395.65939798 197.94908872 396.32301545 198.2799859 C400.67553885 200.46756275 400.67553885 200.46756275 401.78969836 201.58172226 C401.88895746 202.99905396 401.91892452 204.4213035 401.92112613 205.84210491 C401.92496727 206.7671284 401.92880842 207.69215189 401.93276596 208.64520639 C401.93189948 209.67354847 401.931033 210.70189054 401.93014026 211.7613945 C401.93459694 213.38665632 401.93459694 213.38665632 401.93914366 215.0447517 C401.94787502 218.7073921 401.94934277 222.36999998 401.95083117 226.03264999 C401.95545703 228.64754939 401.96048137 231.26244811 401.96587634 233.87734604 C401.97949408 241.01363794 401.9854935 248.14992425 401.989887 255.28622699 C401.99265116 259.7554904 401.99688957 264.22475165 402.00139117 268.6940136 C402.01360253 281.0974333 402.02388888 293.50085126 402.02726626 305.90427685 C402.02748583 306.69941126 402.0277054 307.49454567 402.02793162 308.31377507 C402.02814989 309.11075226 402.02836817 309.90772944 402.02859306 310.72885746 C402.02903651 312.34363075 402.02948308 313.95840405 402.02993274 315.57317734 C402.03015417 316.37414988 402.0303756 317.17512243 402.03060374 318.00036687 C402.03452686 330.89424715 402.05189553 343.78807004 402.07529226 356.68192827 C402.09918763 369.95977205 402.11147677 383.23758735 402.11263418 396.51545292 C402.11354237 403.95345731 402.11915729 411.39138679 402.13745379 418.8293705 C402.34949947 508.74220633 388.90055492 593.34247447 279.34438586 784.58953476 C276.89284474 787.46091167 274.52410431 790.38450583 272.16469836 793.33172226 C268.64867705 797.6576842 264.89362026 801.58509108 260.90297961 805.47234726 C258.95074778 807.42097053 257.1426894 809.42262854 255.35219836 811.51922226 C249.42888458 818.40233226 242.93097148 824.72764942 236.02797961 830.62078476 C233.73994665 832.62530927 231.52530969 834.69885288 229.31167102 836.78484726 C222.73627733 842.96060985 215.88835879 848.60532372 208.72768664 854.08514023 C206.64800229 855.6911449 204.59089106 857.32329647 202.53579211 858.96062851 C192.3023928 867.08424536 181.79732351 874.54660239 170.78969836 881.58172226 C169.99257434 882.0955748 169.19545032 882.60942734 168.37417102 883.13885117 C119.31693587 914.65141221 65.73338646 935.55381193 8.78969836 947.58172226 C7.80404895 947.79071152 6.81839953 947.99970078 5.80288196 948.21502304 C-5.02541253 950.36264417 -13.87701511 949.33366554 -24.64780164 947.01922226 C-26.5621803 946.61268417 -26.5621803 946.61268417 -28.51523328 946.1979332 C-110.05912595 928.65553268 -192.76612717 888.89409083 -251.42905164 828.36687851 C-253.24414709 826.54780258 -255.13264081 824.87655722 -257.08530164 823.20672226 C-264.00453002 817.2390577 -270.37232746 810.70651206 -276.30795789 803.76531601 C-278.21695963 801.57407992 -280.17979019 799.43886325 -282.15707898 797.30926132 C-287.7645425 791.26278613 -293.08860512 785.04791192 -298.21030164 778.58172226 C-298.71400281 777.95056503 -299.21770398 777.31940781 -299.73666883 776.6691246 C-356.91598055 704.88257583 -393.31031415 619.9471696 -411.52280164 511.89422226 C-411.67007703 510.81197372 -411.81735242 509.72972519 -411.9690907 508.61468124 C-414.65571665 487.38750491 -415.50184244 466.24688296 -415.43735242 444.86663437 C-415.43678658 442.19302596 -415.43702079 439.51942847 -415.43823743 436.84582138 C-415.43927401 431.14732004 -415.43312811 425.44886535 -415.42176175 419.75037575 C-415.40533988 411.51184986 -415.40028193 403.27334596 -415.39778577 395.03480548 C-415.39343446 381.66053913 -415.3801959 368.2862975 -415.36118054 354.91204453 C-415.3427547 341.93873847 -415.32863125 328.96543919 -415.32016492 315.99212265 C-415.31963947 315.18921494 -415.31911402 314.38630722 -415.31857266 313.55906897 C-415.31596213 309.53015156 -415.31343482 305.50123411 -415.31094885 301.47231662 C-415.29029641 268.17543385 -415.25514191 234.87858139 -415.21030164 201.58172226 C-397.41942294 192.02375807 -379.33046939 183.04997289 -361.27567005 174.00506699 C-357.51170867 172.11904276 -353.74846637 170.23158609 -349.98522045 168.34413479 C-336.54408711 161.60279442 -323.10014285 154.8670692 -309.65561414 148.13250351 C-308.59423928 147.60082863 -307.53286443 147.06915376 -306.4393267 146.52136752 C-285.3417474 135.95300436 -264.24306484 125.38684521 -243.14211202 114.82521915 C-238.52143402 112.51239592 -233.90077125 110.19954227 -229.28012586 107.8866539 C-228.13182341 107.31186734 -226.98352096 106.73708078 -225.80042146 106.14487644 C-207.13819058 96.80304695 -188.48151901 87.45016855 -169.82699265 78.09296522 C-150.65412843 68.47601502 -131.47602112 58.86958716 -112.29279435 49.27332371 C-101.52967613 43.88880632 -90.76898503 38.49955376 -80.01423001 33.09834862 C-70.87240427 28.50719809 -61.7259489 23.92544543 -52.57317878 19.35614941 C-47.90261151 17.02411075 -43.23446878 14.68751872 -38.57228208 12.33876419 C-34.30916636 10.19118547 -30.03985948 8.05649558 -25.76514421 5.93210378 C-24.21607147 5.1594017 -22.66937872 4.38190696 -21.12529279 3.59928731 C-19.03371639 2.54003143 -16.93433057 1.49823323 -14.83200765 0.46051121 C-13.08232676 -0.41591621 -13.08232676 -0.41591621 -11.29729879 -1.31004924 C-6.63321748 -2.98444918 -4.43079553 -1.9574792 0 0 Z " fill="#2563EB" transform="translate(540.2103016376495,59.418277740478516)"/>
<path d="M0 0 C1.2402357 0.61276352 2.47722208 1.2321307 3.71156192 1.85668564 C4.39913451 2.19859137 5.08670711 2.5404971 5.79511523 2.89276361 C8.10684209 4.04414234 10.4141794 5.20405494 12.72164416 6.36394882 C14.39141079 7.19782029 16.0614402 8.03116571 17.73170996 8.86402893 C22.32743278 11.1575573 26.91937007 13.45857615 31.51073527 15.76081276 C36.46015406 18.24096138 41.41302355 20.714201 46.36547351 23.18828964 C56.06852886 28.03699746 65.7683771 32.89208796 75.46718338 37.74928856 C86.75199021 43.40044837 98.04000795 49.04518019 109.32818779 54.68959856 C129.46101797 64.75685809 149.59101939 74.82976096 169.71938586 84.90594101 C189.27149676 94.69364746 208.82543129 104.47769763 228.38149524 114.25750351 C229.28548208 114.70958057 229.28548208 114.70958057 230.20773128 115.17079049 C232.63735653 116.38582754 235.06698315 117.60086184 237.49660985 118.81589599 C238.70733133 119.42136692 239.91805263 120.02683822 241.12877375 120.63230988 C242.33647601 121.23627169 243.54417879 121.84023247 244.75188209 122.4441922 C263.96474925 132.05238173 283.17602368 141.66375508 302.38702811 151.27566838 C309.14229892 154.65552456 315.89777086 158.03497836 322.65338114 161.41415596 C333.36527492 166.77231501 344.07650241 172.13180117 354.78635862 177.49403191 C359.68311763 179.94572424 364.58018978 182.39678544 369.4781177 184.84614182 C373.95439356 187.08467117 378.42974778 189.32503152 382.90434465 191.56691504 C384.5303676 192.38118792 386.15673319 193.194777 387.78345981 194.00764322 C389.98029513 195.10551885 392.17590466 196.20580674 394.37119937 197.30675888 C395.01529868 197.6279238 395.65939798 197.94908872 396.32301545 198.2799859 C400.67553885 200.46756275 400.67553885 200.46756275 401.78969836 201.58172226 C401.88895746 202.99905396 401.91892452 204.4213035 401.92112613 205.84210491 C401.92496727 206.7671284 401.92880842 207.69215189 401.93276596 208.64520639 C401.93189948 209.67354847 401.931033 210.70189054 401.93014026 211.7613945 C401.93459694 213.38665632 401.93459694 213.38665632 401.93914366 215.0447517 C401.94787502 218.7073921 401.94934277 222.36999998 401.95083117 226.03264999 C401.95545703 228.64754939 401.96048137 231.26244811 401.96587634 233.87734604 C401.97949408 241.01363794 401.9854935 248.14992425 401.989887 255.28622699 C401.99265116 259.7554904 401.99688957 264.22475165 402.00139117 268.6940136 C402.01360253 281.0974333 402.02388888 293.50085126 402.02726626 305.90427685 C402.02748583 306.69941126 402.0277054 307.49454567 402.02793162 308.31377507 C402.02814989 309.11075226 402.02836817 309.90772944 402.02859306 310.72885746 C402.02903651 312.34363075 402.02948308 313.95840405 402.02993274 315.57317734 C402.03015417 316.37414988 402.0303756 317.17512243 402.03060374 318.00036687 C402.03452686 330.89424715 402.05189553 343.78807004 402.07529226 356.68192827 C402.09918763 369.95977205 402.11147677 383.23758735 402.11263418 396.51545292 C402.11354237 403.95345731 402.11915729 411.39138679 402.13745379 418.8293705 C402.34949947 508.74220633 388.90055492 593.34247447 279.34438586 784.58953476 C276.89284474 787.46091167 274.52410431 790.38450583 272.16469836 793.33172226 C268.64867705 797.6576842 264.89362026 801.58509108 260.90297961 805.47234726 C258.95074778 807.42097053 257.1426894 809.42262854 255.35219836 811.51922226 C249.42888458 818.40233226 242.93097148 824.72764942 236.02797961 830.62078476 C233.73994665 832.62530927 231.52530969 834.69885288 229.31167102 836.78484726 C222.73627733 842.96060985 215.88835879 848.60532372 208.72768664 854.08514023 C206.64800229 855.6911449 204.59089106 857.32329647 202.53579211 858.96062851 C192.3023928 867.08424536 181.79732351 874.54660239 170.78969836 881.58172226 C169.99257434 882.0955748 169.19545032 882.60942734 168.37417102 883.13885117 C119.31693587 914.65141221 65.73338646 935.55381193 8.78969836 947.58172226 C7.80404895 947.79071152 6.81839953 947.99970078 5.80288196 948.21502304 C-5.02541253 950.36264417 -13.87701511 949.33366554 -24.64780164 947.01922226 C-26.5621803 946.61268417 -26.5621803 946.61268417 -28.51523328 946.1979332 C-110.05912595 928.65553268 -192.76612717 888.89409083 -251.42905164 828.36687851 C-253.24414709 826.54780258 -255.13264081 824.87655722 -257.08530164 823.20672226 C-264.00453002 817.2390577 -270.37232746 810.70651206 -276.30795789 803.76531601 C-278.21695963 801.57407992 -280.17979019 799.43886325 -282.15707898 797.30926132 C-287.7645425 791.26278613 -293.08860512 785.04791192 -298.21030164 778.58172226 C-298.71400281 777.95056503 -299.21770398 777.31940781 -299.73666883 776.6691246 C-356.91598055 704.88257583 -393.31031415 619.9471696 -411.52280164 511.89422226 C-411.67007703 510.81197372 -411.81735242 509.72972519 -411.9690907 508.61468124 C-414.65571665 487.38750491 -415.50184244 466.24688296 -415.43735242 444.86663437 C-415.43678658 442.19302596 -415.43702079 439.51942847 -415.43823743 436.84582138 C-415.43927401 431.14732004 -415.43312811 425.44886535 -415.42176175 419.75037575 C-415.40533988 411.51184986 -415.40028193 403.27334596 -415.39778577 395.03480548 C-415.39343446 381.66053913 -415.3801959 368.2862975 -415.36118054 354.91204453 C-415.3427547 341.93873847 -415.32863125 328.96543919 -415.32016492 315.99212265 C-415.31963947 315.18921494 -415.31911402 314.38630722 -415.31857266 313.55906897 C-415.31596213 309.53015156 -415.31343482 305.50123411 -415.31094885 301.47231662 C-415.29029641 268.17543385 -415.25514191 234.87858139 -415.21030164 201.58172226 C-397.41942294 192.02375807 -379.33046939 183.04997289 -361.27567005 174.00506699 C-357.51170867 172.11904276 -353.74846637 170.23158609 -349.98522045 168.34413479 C-336.54408711 161.60279442 -323.10014285 154.8670692 -309.65561414 148.13250351 C-308.59423928 147.60082863 -307.53286443 147.06915376 -306.4393267 146.52136752 C-285.3417474 135.95300436 -264.24306484 125.38684521 -243.14211202 114.82521915 C-238.52143402 112.51239592 -233.90077125 110.19954227 -229.28012586 107.8866539 C-228.13182341 107.31186734 -226.98352096 106.73708078 -225.80042146 106.14487644 C-207.13819058 96.80304695 -188.48151901 87.45016855 -169.82699265 78.09296522 C-150.65412843 68.47601502 -131.47602112 58.86958716 -112.29279435 49.27332371 C-101.52967613 43.88880632 -90.76898503 38.49955376 -80.01423001 33.09834862 C-70.87240427 28.50719809 -61.7259489 23.92544543 -52.57317878 19.35614941 C-47.90261151 17.02411075 -43.23446878 14.68751872 -38.57228208 12.33876419 C-34.30916636 10.19118547 -30.03985948 8.05649558 -25.76514421 5.93210378 C-24.21607147 5.1594017 -22.66937872 4.38190696 -21.12529279 3.59928731 C-19.03371639 2.54003143 -16.93433057 1.49823323 -14.83200765 0.46051121 C-13.08232676 -0.41591621 -13.08232676 -0.41591621 -11.29729879 -1.31004924 C-6.63321748 -2.98444918 -4.43079553 -1.9574792 0 0 Z M-13.42133069 19.62431622 C-14.41031067 20.11771612 -14.41031067 20.11771612 -15.41927004 20.62108371 C-17.65705023 21.73813027 -19.8933771 22.85805668 -22.12973523 23.97794724 C-23.73847279 24.78174064 -25.34729761 25.58535944 -26.95620275 26.38881737 C-31.39953338 28.60838286 -35.84160069 30.83046645 -40.28347421 33.05294621 C-45.06535449 35.44501201 -49.84837953 37.83478679 -54.63126111 40.2248497 C-64.00971257 44.91184562 -73.38707498 49.60101645 -82.76405597 54.29095345 C-90.38142617 58.10076522 -97.99918398 61.90980089 -105.61722302 65.71827507 C-107.24017303 66.52963515 -107.24017303 66.52963515 -108.89590991 67.35738634 C-111.09353174 68.4560374 -113.29115448 69.55468667 -115.48877811 70.65333415 C-136.12302358 80.9690292 -156.75603958 91.28718143 -177.3886404 101.60616548 C-195.11274489 110.47045164 -212.837897 119.33263996 -230.56381726 128.19329453 C-251.12133186 138.46937923 -271.67820016 148.74675497 -292.23403096 159.02620751 C-294.42381322 160.12125792 -296.61359631 161.21630665 -298.80338025 162.31135368 C-299.88094756 162.85021447 -300.95851486 163.38907526 -302.06873572 163.94426517 C-309.68169674 167.75117835 -317.29512311 171.55715982 -324.90872693 175.36278725 C-334.18077404 179.997412 -343.45211287 184.63344992 -352.72253203 189.27133017 C-357.45723257 191.63999923 -362.19225765 194.00801353 -366.92814374 196.37431145 C-371.25653762 198.53702749 -375.58401682 200.70156193 -379.910748 202.86760236 C-381.48305381 203.6543176 -383.05570347 204.44034603 -384.62871552 205.22564822 C-386.75315553 206.28636604 -388.87637024 207.34949607 -390.99927258 208.41328716 C-391.62205445 208.72350751 -392.24483631 209.03372786 -392.88649035 209.35334882 C-395.73948858 210.68537474 -395.73948858 210.68537474 -398.21030164 212.58172226 C-398.30934183 213.93125457 -398.33952436 215.28591925 -398.3417294 216.63907909 C-398.34557055 217.51881844 -398.34941169 218.39855779 -398.35336924 219.3049559 C-398.35250275 220.28271565 -398.35163627 221.2604754 -398.35074353 222.26786423 C-398.35371465 223.29828592 -398.35668578 224.32870762 -398.35974693 225.39035422 C-398.36847782 228.87334105 -398.36994601 232.35629368 -398.37143445 235.83929062 C-398.37606038 238.32611287 -398.38108473 240.8129344 -398.38647962 243.2997551 C-398.39964748 250.08688762 -398.40609703 256.87400665 -398.41049027 263.66114879 C-398.41325478 267.91264963 -398.41749329 272.1641482 -398.42199445 276.41564751 C-398.43420661 288.21686631 -398.44449231 300.01808329 -398.44786954 311.81930828 C-398.44808911 312.57586375 -398.44830867 313.33241921 -398.44853489 314.1119006 C-398.44875317 314.87020347 -398.44897145 315.62850633 -398.44919634 316.40978807 C-398.44963979 317.94618476 -398.45008635 319.48258144 -398.45053601 321.01897812 C-398.45075744 321.78107267 -398.45097887 322.54316723 -398.45120701 323.32835556 C-398.45512871 335.59175089 -398.47249252 347.85508582 -398.49589553 360.11845797 C-398.51980255 372.74993476 -398.53208058 385.38138161 -398.53323746 398.01288134 C-398.53414508 405.08759359 -398.53974558 412.16222703 -398.55805707 419.2369175 C-398.70536759 478.60934044 -394.40950806 536.69999205 -376.21030164 593.58172226 C-375.78694393 594.92341083 -375.36394967 596.26521412 -374.94125867 597.60711288 C-359.57449618 646.22111511 -338.5396797 692.68976077 -309.21030164 734.58172226 C-308.80650281 735.16131699 -308.40270398 735.74091171 -307.98666883 736.33806992 C-295.70647453 753.92564358 -282.52901706 771.08528576 -267.84311414 786.73797226 C-265.86716494 788.87223193 -263.96453312 791.02716238 -262.07358289 793.23406601 C-257.83567803 798.09789448 -253.29164084 802.65085291 -248.72226453 807.20013046 C-247.27505779 808.64197447 -245.83328138 810.08909342 -244.39194226 811.53680038 C-239.16818201 816.76470191 -233.84270366 821.79665256 -228.21030164 826.58172226 C-227.08042888 827.5662913 -225.95149236 828.55193598 -224.82358289 829.53875351 C-217.16595694 836.18246579 -209.35523024 842.54264058 -201.21030164 848.58172226 C-200.53483289 849.08316757 -199.85936414 849.58461288 -199.16342664 850.10125351 C-150.12573622 886.35033761 -93.85406563 914.0168273 -34.21030164 927.58172226 C-33.19645398 927.81262558 -32.18260633 928.0435289 -31.13803601 928.28142929 C-27.79162319 929.02939884 -24.44032985 929.74846023 -21.08530164 930.45672226 C-20.04132215 930.68464462 -18.99734265 930.91256699 -17.92172742 931.14739609 C-11.66991714 932.41356639 -6.47387979 932.74124742 -0.21030164 931.58172226 C1.07118762 931.36854355 1.07118762 931.36854355 2.37856555 931.1510582 C69.85492608 919.48935703 134.76845516 889.41882637 188.78969836 847.58172226 C189.32337024 847.17276718 189.85704211 846.7638121 190.40688586 846.34246445 C199.84551976 839.10581599 208.90566758 831.48787404 217.78969836 823.58172226 C218.31853625 823.11218124 218.84737414 822.64264023 219.39223742 822.1588707 C226.89129883 815.4637929 234.04369382 808.42550534 241.16469836 801.33172226 C242.009276 800.49181747 242.85385364 799.65191269 243.72402453 798.78655624 C248.61940166 793.87856841 253.287911 788.85132147 257.78969836 783.58172226 C258.73902484 782.49864298 259.68949274 781.41656279 260.64126086 780.33562851 C268.44178261 771.39193883 275.68827315 762.08660415 282.78969836 752.58172226 C283.52301379 751.60453232 283.52301379 751.60453232 284.27114367 750.60760117 C339.1197446 677.38266257 373.30160863 587.9590078 384.90322375 441.44890976 C384.9029412 438.94411851 384.90310095 436.43932718 384.90366626 433.93453598 C384.9038927 428.57310993 384.90108855 423.21169904 384.89542842 417.85027695 C384.88725053 410.09886341 384.8846918 402.34745573 384.88344043 394.59603834 C384.88125972 382.0154166 384.8746264 369.4348014 384.86513782 356.8541832 C384.8559382 344.64389707 384.84886988 332.43361272 384.84463 320.22332382 C384.84436728 319.46883052 384.84410456 318.71433722 384.84383387 317.93698049 C384.8425287 314.15135655 384.84126502 310.3657326 384.84002197 306.58010864 C384.82967994 275.24730843 384.81201341 243.91451634 384.78969836 212.58172226 C367.42812501 203.25539899 349.77715477 194.50352854 332.14911842 185.69606996 C327.59924761 183.42227687 323.05053931 181.14616022 318.50167346 178.87035751 C309.6206884 174.42765388 300.73863537 169.98708962 291.85618375 165.54731898 C284.64185529 161.94128747 277.42792105 158.33446845 270.21426272 154.72709656 C269.18469137 154.21223427 268.15512002 153.69737197 267.09434954 153.16690779 C265.00253953 152.12084292 262.91073041 151.07477625 260.81892218 150.02870782 C241.25951962 140.24758469 221.69889712 130.46890336 202.13784911 120.69107147 C185.34326975 112.29602145 168.5497471 103.89886081 151.75698352 95.50017929 C132.23586843 85.73694962 112.71410902 75.97501023 93.19130981 66.21514857 C91.11302244 65.17616416 89.03473591 64.13717808 86.95645022 63.09819031 C85.93394668 62.58701567 84.91144314 62.07584104 83.85795464 61.54917627 C76.64079078 57.94102668 69.42409249 54.33194697 62.20757174 50.72251129 C53.43158743 46.33312114 44.65489885 41.9451431 35.87728666 37.55900912 C31.39663623 35.32000283 26.91631523 33.08034365 22.43685031 30.83896637 C18.34404264 28.79108229 14.25033029 26.74501917 10.15586056 24.70046027 C8.66818354 23.95718431 7.18084999 23.21322048 5.69387959 22.46853189 C3.6866075 21.46339486 1.67814322 20.46068289 -0.33066487 19.45862007 C-1.45003348 18.89901695 -2.56940208 18.33941382 -3.72269094 17.76285303 C-7.74152051 15.85469141 -9.6589356 17.73604686 -13.42133069 19.62431622 Z " fill="#1D4ED8" transform="translate(540.2103016376495,59.418277740478516)"/>
<path d="M0 0 C5.70677464 -0.05006956 11.41341669 -0.08603072 17.12036133 -0.10986328 C19.05495435 -0.11981638 20.98953275 -0.13338371 22.92407227 -0.15087891 C34.49200498 -0.25274622 45.56754443 0.06038076 57 2 C58.28616211 2.20189941 59.57232422 2.40379883 60.89746094 2.61181641 C81.04933537 5.88892812 100.77158702 16.45977252 113.5625 32.4375 C122.1956505 44.43637176 127.13308998 57.5900049 130 72 C130.33644531 73.49080078 130.33644531 73.49080078 130.6796875 75.01171875 C135.66654839 100.59499826 133.12218773 132.403306 118.6796875 154.703125 C105.55513826 172.65018303 85.83597499 183.14826343 63.98779297 186.59350586 C54.20034026 187.92510488 44.36496907 188.18182395 34.5 188.1875 C33.37980469 188.19974609 32.25960937 188.21199219 31.10546875 188.22460938 C8.8158057 188.26317281 8.8158057 188.26317281 2 182 C-0.43551468 178.37658877 -0.24654268 175.04530142 -0.24050903 170.76141357 C-0.24221788 170.03112355 -0.24392673 169.30083354 -0.24568737 168.54841352 C-0.24898214 166.10086082 -0.23797886 163.65358214 -0.22705078 161.20605469 C-0.22648666 159.45179246 -0.22680324 157.69752977 -0.22793579 155.94326782 C-0.22851029 151.17915255 -0.21674029 146.41513771 -0.20278788 141.6510458 C-0.19029666 136.67290695 -0.18911129 131.69476587 -0.18673706 126.71661377 C-0.18051756 117.28899425 -0.16410037 107.86142103 -0.14403808 98.43382192 C-0.12169371 87.7011708 -0.11068933 76.96851749 -0.10064721 66.2358489 C-0.07973457 44.15720674 -0.04454944 22.07860629 0 0 Z " fill="#2563EB" transform="translate(472,696)"/>
<path d="M0 0 C0.90211354 0.04378249 0.90211354 0.04378249 1.82245159 0.08844948 C16.16843748 0.7706319 30.4851632 1.15039097 44.84676552 1.19923019 C48.1010382 1.2113577 51.35519693 1.23087335 54.60942078 1.25234985 C63.84154404 1.31291763 73.07364249 1.36799231 82.3059082 1.40136719 C88.00715837 1.42250232 93.70817632 1.45792103 99.40929222 1.50212479 C101.55107053 1.51609915 103.6928896 1.52496422 105.83471107 1.52817917 C135.75169086 1.57792028 166.23103507 6.36150291 190 26 C191.23943359 26.99580078 191.23943359 26.99580078 192.50390625 28.01171875 C212.29805054 44.77014138 224.65048642 70.23619408 227 96 C228.92097964 130.04866817 220.44925449 159.53912803 197.8515625 185.46484375 C186.59881612 197.36598258 172.89608883 204.65977251 158 211 C156.97519531 211.4434375 155.95039062 211.886875 154.89453125 212.34375 C138.43459676 218.61420123 119.45912694 218.44793443 102.08984375 218.4765625 C100.06082679 218.4909521 98.03181922 218.5067225 96.00282288 218.52377319 C90.71568694 218.56510838 85.4286091 218.59041545 80.14135742 218.61126709 C71.72836631 218.64732826 63.31548986 218.70809876 54.90263748 218.76766205 C52.86909014 218.78187092 50.83553845 218.79547153 48.80198288 218.80844879 C32.51940423 218.91421759 16.26746551 219.26553651 0 220 C-0.05399736 218.54207116 -0.09279177 217.08357288 -0.125 215.625 C-0.15980469 214.40683594 -0.15980469 214.40683594 -0.1953125 213.1640625 C0 211 0 211 2 209 C3.64821835 208.47920878 5.3197555 208.03074086 7 207.625 C10.89500705 206.59999814 14.71485734 205.50546379 18.5 204.125 C19.2940625 203.83882812 20.088125 203.55265625 20.90625 203.2578125 C23.73205042 201.56022344 24.56191281 199.96714843 26 197 C26.45258049 193.56324543 26.45258049 193.56324543 26.38768005 189.7440033 C26.39306559 189.02384822 26.39845113 188.30369314 26.40399987 187.56171519 C26.4182812 185.15416834 26.41117559 182.74717118 26.40405273 180.33959961 C26.40975612 178.61137958 26.41672026 176.88316332 26.42485046 175.154953 C26.44279781 170.46499314 26.44161085 165.77522021 26.43590808 161.08523631 C26.43281934 157.17095673 26.43890498 153.25671321 26.44494683 149.34243876 C26.45899483 140.11066762 26.4574277 130.87898902 26.44604492 121.6472168 C26.43455549 112.11826142 26.44865259 102.58958722 26.4754414 93.06066889 C26.49757637 84.88135987 26.50424099 76.70213926 26.49836498 68.52280241 C26.49498988 63.63665855 26.49744749 58.75069506 26.51461601 53.86457634 C26.53004866 49.27211199 26.52617077 44.6800655 26.50731087 40.08761787 C26.50361514 38.40094713 26.50676199 36.71424567 26.51719666 35.02760315 C26.53034143 32.72758724 26.51891899 30.42896816 26.50120544 28.12901306 C26.50089152 26.19745818 26.50089152 26.19745818 26.50057125 24.22688198 C25.91249091 20.43588148 25.00154966 19.30255999 22 17 C16.24632504 14.22736293 10.0487751 12.6035804 3.77734375 11.4921875 C2 11 2 11 0 9 C-0.1953125 6.8359375 -0.1953125 6.8359375 -0.125 4.375 C-0.10695313 3.55773437 -0.08890625 2.74046875 -0.0703125 1.8984375 C-0.04710937 1.27195312 -0.02390625 0.64546875 0 0 Z M59 16 C58.92994735 39.12194209 58.87703017 62.24386671 58.84456348 85.36589336 C58.82908857 96.10163099 58.8079871 106.83730272 58.77368164 117.57299805 C58.74379843 126.92922964 58.72442954 136.28541351 58.71773452 145.64169151 C58.71382044 150.59667957 58.70460879 155.5515311 58.68280983 160.50647545 C58.66246175 165.16936943 58.65616282 169.83207049 58.66067696 174.49500465 C58.659851 176.20706353 58.65387536 177.91912879 58.64238358 179.63114929 C58.62746552 181.96805667 58.63104357 184.30423493 58.63923645 186.64115906 C58.63647107 187.9491833 58.63370569 189.25720755 58.63085651 190.60486889 C59.02673488 194.24588928 59.81091583 196.10017755 62 199 C70.50798159 205.39265325 83.35635454 204.29839141 93.5 204.1875 C94.62019531 204.18685547 95.74039063 204.18621094 96.89453125 204.18554688 C115.72670653 204.08780202 132.78645902 201.80860071 150 194 C151.46759766 193.33871094 151.46759766 193.33871094 152.96484375 192.6640625 C169.36809805 184.52127055 179.99429385 170.01798896 186.28808594 153.17919922 C188.31997842 146.95948994 189.16574303 140.46870019 190 134 C190.27457031 132.14181641 190.27457031 132.14181641 190.5546875 130.24609375 C192.43378338 114.84950971 191.52792026 99.06268565 188 84 C187.74476563 82.75476563 187.48953125 81.50953125 187.2265625 80.2265625 C182.82003995 60.94297298 171.61062157 42.84113675 154.77783203 32.05566406 C145.87373117 26.76847207 136.10301063 22.3374978 126 20 C124.90171875 19.73574219 123.8034375 19.47148438 122.671875 19.19921875 C108.19383508 15.89308626 94.0849075 15.87188887 79.3125 15.9375 C77.33919384 15.94252443 75.36588645 15.94708567 73.39257812 15.95117188 C68.59502115 15.96210412 63.79752444 15.9793169 59 16 Z " fill="#FDFDFE" transform="translate(413,680)"/>
<path d="M0 0 C9.59467847 -0.10833284 19.1709312 0.12063605 28.75610352 0.52490234 C30.46892179 0.59196905 32.18221248 0.6478504 33.89575195 0.69287109 C36.40758893 0.76023562 38.91558275 0.86462132 41.42578125 0.9765625 C42.18321121 0.98934235 42.94064117 1.00212219 43.72102356 1.01528931 C49.72525523 1.34472569 52.94952514 3.6564446 57 8 C58.96990441 10.34343945 60.78311012 12.75941588 62.5625 15.25 C63.60127819 16.66913133 64.64171031 18.08705314 65.68359375 19.50390625 C66.22226074 20.23883301 66.76092773 20.97375977 67.31591797 21.73095703 C70.18756325 25.60005985 73.15682516 29.39225455 76.125 33.1875 C77.31000618 34.70564304 78.49490411 36.22387058 79.6796875 37.7421875 C80.52611816 38.8264502 80.52611816 38.8264502 81.38964844 39.93261719 C85.28602331 44.93481586 89.13962505 49.97000814 93 55 C94.66609253 57.16710847 96.33305199 59.33354953 98 61.5 C98.83334905 62.58332124 99.66668241 63.66665456 100.5 64.75 C100.9125 65.28625 101.325 65.8225 101.75 66.375 C105.5 71.25 105.5 71.25 106.74902344 72.8737793 C107.5855491 73.96123001 108.42213803 75.04863207 109.25878906 76.13598633 C111.29379288 78.78093787 113.32756533 81.42681112 115.359375 84.07421875 C120.15375095 90.31787502 124.97411088 96.54038067 129.8125 102.75 C136.09694941 110.8175508 142.31645938 118.93317278 148.52001953 127.06298828 C150.73618913 129.96353093 152.96086448 132.85748772 155.1875 135.75 C155.98027344 136.77996094 156.77304687 137.80992187 157.58984375 138.87109375 C159.26909143 141.05112194 160.9488068 143.23078488 162.62890625 145.41015625 C163.06759033 145.97959961 163.50627441 146.54904297 163.95825195 147.13574219 C165.16447361 148.70148219 166.37127714 150.26677387 167.578125 151.83203125 C169.44848485 154.27858261 171.30486517 156.73351606 173.15136719 159.19799805 C173.95389923 160.26886909 173.95389923 160.26886909 174.77264404 161.3613739 C175.17767151 161.90212051 175.58269897 162.44286713 176 163 C176.07007683 144.70225995 176.12298166 126.40455472 176.15543652 108.10670948 C176.17090631 99.61072619 176.19199797 91.11482627 176.22631836 82.61889648 C176.25621729 75.21396014 176.27557418 67.80908418 176.28226548 60.40408915 C176.28617692 56.4830752 176.29537159 52.562234 176.31719017 48.64127541 C176.33756319 44.95016661 176.3438322 41.25930162 176.33932304 37.56814194 C176.34054097 35.56877788 176.35667885 33.56944032 176.3732605 31.57014465 C176.36707451 29.78024109 176.36707451 29.78024109 176.36076355 27.95417786 C176.36352893 26.91900434 176.36629431 25.88383081 176.36914349 24.8172884 C175.93693584 21.51869687 174.9854001 19.65165665 173 17 C170.16012747 15.60434535 170.16012747 15.60434535 166.875 14.8125 C165.14443359 14.32910156 165.14443359 14.32910156 163.37890625 13.8359375 C160.53083433 13.1313278 157.68946632 12.50821527 154.8125 11.9375 C151 11 151 11 149 8 C148.8125 4.375 148.8125 4.375 149 1 C149.33 0.67 149.66 0.34 150 0 C152.34268376 0.09867282 154.66309108 0.25641304 157 0.4375 C166.4131831 1.06597662 175.82053391 1.11791966 185.25 1.125 C186.34779785 1.12861038 186.34779785 1.12861038 187.46777344 1.1322937 C189.58793648 1.13825755 191.70795966 1.13680679 193.828125 1.1328125 C195.0646582 1.13168457 196.30119141 1.13055664 197.57519531 1.12939453 C200.80932497 1.007204 203.82167389 0.58352304 207 0 C208.62394748 -0.0620775 210.25005297 -0.08712041 211.875 -0.0625 C213.916875 -0.0315625 213.916875 -0.0315625 216 0 C216 3.3 216 6.6 216 10 C213.12111964 11.01149851 210.25842161 11.93697943 207.29296875 12.66015625 C206.33003906 12.89605469 205.36710938 13.13195312 204.375 13.375 C203.45460938 13.58898437 202.53421875 13.80296875 201.5859375 14.0234375 C197.92912002 15.40441087 195.74381065 17.5123787 194 21 C193.89218298 23.63210083 193.84509903 26.23844987 193.84178162 28.87124634 C193.83684364 29.69374921 193.83190566 30.51625209 193.82681805 31.36367929 C193.81139143 34.13519163 193.8030685 36.90668072 193.79467773 39.67822266 C193.78510326 41.65879015 193.77509344 43.63935557 193.76467896 45.61991882 C193.7375771 51.0101112 193.71659618 56.40031238 193.69667697 61.79053545 C193.67484992 67.41867215 193.64744522 73.04678154 193.62062073 78.67489624 C193.57064937 89.33856247 193.52572706 100.00224382 193.48259836 110.66593969 C193.4332639 122.8036208 193.37833174 134.94127454 193.32291877 147.07892919 C193.20903054 172.05259392 193.10220644 197.02628492 193 222 C191.57238252 222.07299352 190.14367675 222.12488764 188.71484375 222.16796875 C187.91941162 222.19914795 187.12397949 222.23032715 186.30444336 222.26245117 C182.71333234 221.85346247 181.15560758 219.9922717 178.8515625 217.3515625 C178.24054688 216.57554687 177.62953125 215.79953125 177 215 C176.28585937 214.10023438 175.57171875 213.20046875 174.8359375 212.2734375 C173.15983058 210.116883 171.49965222 207.95391985 169.85546875 205.7734375 C166.69734297 201.5856091 163.47502958 197.44890252 160.25 193.3125 C159.04680367 191.76698261 157.84367942 190.2214091 156.640625 188.67578125 C156.03798828 187.90186035 155.43535156 187.12793945 154.81445312 186.33056641 C151.87486662 182.55482734 148.93752285 178.77734465 146 175 C144.83334461 173.49999123 143.66667793 171.99999124 142.5 170.5 C130.83333333 155.5 119.16666667 140.5 107.5 125.5 C106.92217773 124.75709717 106.34435547 124.01419434 105.74902344 123.2487793 C104.58556688 121.75288338 103.42215522 120.25695255 102.25878906 118.76098633 C99.29338002 114.94790224 96.32712738 111.13547936 93.359375 107.32421875 C87.42016436 99.69540508 81.49764033 92.05493357 75.609375 84.38671875 C70.72069979 78.03182231 65.78443956 71.71363016 60.85839844 65.38769531 C58.94858382 62.9339398 57.0404625 60.47887617 55.1328125 58.0234375 C54.18873535 56.80853638 54.18873535 56.80853638 53.22558594 55.5690918 C52.02286811 54.02126694 50.82038121 52.4732626 49.61816406 50.92504883 C48.79783691 49.86966919 48.79783691 49.86966919 47.9609375 48.79296875 C47.48446777 48.1796167 47.00799805 47.56626465 46.51708984 46.93432617 C44.69408515 44.60995118 42.84645612 42.30577055 41 40 C40.9299141 60.36661003 40.87701386 80.73319558 40.84456348 101.0999012 C40.82909563 110.55655067 40.80800763 120.01312519 40.77368164 129.46972656 C40.74377683 137.71224991 40.72442441 145.95471898 40.71773452 154.19729507 C40.71382409 158.56155165 40.70463573 162.92565296 40.68280983 167.28985977 C40.66242759 171.39874004 40.6561697 175.50740127 40.66067696 179.61632729 C40.65985253 181.12317279 40.65389714 182.63002572 40.64238358 184.13682747 C40.6274117 186.19753433 40.63106275 188.25741904 40.63923645 190.31814575 C40.63508838 192.0465076 40.63508838 192.0465076 40.63085651 193.80978584 C41.05647282 197.48804979 42.03633127 199.87121784 44 203 C46.7726845 204.36018485 49.05582143 205.18659331 52 206 C53.18851562 206.3403125 54.37703125 206.680625 55.6015625 207.03125 C58.1043716 207.74488192 60.61079073 208.44600637 63.12109375 209.1328125 C66 210 66 210 67 211 C67.07179964 212.51928038 67.08392007 214.04167482 67.0625 215.5625 C67.05347656 216.38878906 67.04445313 217.21507812 67.03515625 218.06640625 C67.02355469 218.70449219 67.01195312 219.34257813 67 220 C66.44876465 219.96970703 65.8975293 219.93941406 65.32958984 219.90820312 C43.47825801 218.737033 21.85082547 218.86174697 0 220 C-1.39935013 217.20129973 -1.25265405 215.09501208 -1 212 C1.76026674 207.89026952 6.85940392 207.61033001 11.375 206.62695312 C15.81545078 205.56991355 18.69934069 204.15849608 22 201 C23.48946269 198.02107462 23.13977578 195.32235485 23.15390015 191.99760437 C23.1582824 191.26846748 23.16266465 190.53933058 23.1671797 189.78809863 C23.18058926 187.3322813 23.18675136 184.87649986 23.19287109 182.4206543 C23.20077031 180.66494585 23.20903914 178.90923903 23.21765137 177.15353394 C23.24389043 171.37711136 23.25917998 165.60068146 23.2734375 159.82421875 C23.27879623 157.83759875 23.28417374 155.8509788 23.28956985 153.8643589 C23.31120054 145.60247648 23.32993846 137.34059602 23.34119225 129.07869244 C23.35743928 117.22799168 23.3906332 105.37761841 23.44759309 93.52704114 C23.48625616 85.20002758 23.50582057 76.87310176 23.51111281 68.54600078 C23.514771 63.56971514 23.52684194 58.59377863 23.55921555 53.61758995 C23.58923261 48.93650134 23.59563085 44.25597427 23.58383179 39.57481003 C23.58361052 37.85628863 23.59195918 36.13774165 23.60948563 34.41930962 C23.63211121 32.07330918 23.62391537 29.72935644 23.60800171 27.38334656 C23.61131186 26.07054561 23.614622 24.75774466 23.61803246 23.40516186 C22.84438698 19.14262186 21.30824535 17.69834572 18 15 C14.11900635 12.79999562 10.03517626 11.91620538 5.625 11.5 C4.42875 11.335 3.2325 11.17 2 11 C-0.67927341 6.98108988 -0.15601248 4.75838077 0 0 Z " fill="#FDFDFE" transform="translate(425,420)"/>
<path d="M0 0 C8.07222779 19.06609589 16.09899866 38.14895067 23.9375 57.3125 C24.26543549 58.11421631 24.59337097 58.91593262 24.9312439 59.74194336 C25.26161652 60.54962158 25.59198914 61.3572998 25.93237305 62.18945312 C30.69340999 73.82733459 35.49061639 85.44970051 40.3125 97.0625 C45.62045959 109.84689334 50.91803515 122.63545393 56.19750977 135.43164062 C57.80379879 139.32451128 59.41239905 143.21641331 61.02319336 147.10742188 C64.47003322 155.43562097 67.91208456 163.76511966 71.29788208 172.11836243 C72.6626958 175.48189862 74.03676396 178.84160885 75.41229248 182.20077515 C76.04614169 183.75574111 76.67553611 185.31253162 77.30010986 186.87124634 C78.15488143 189.00362207 79.0248389 191.1291885 79.8984375 193.25390625 C80.37974121 194.44314697 80.86104492 195.6323877 81.35693359 196.85766602 C84.18114164 202.25891145 87.63776228 205.31018897 93.375 207.25 C94.33277344 207.57484375 95.29054688 207.8996875 96.27734375 208.234375 C99.16919906 209.11969666 99.16919906 209.11969666 102.9375 209.5 C106 210 106 210 108.4375 211.6875 C110.44502678 214.65863963 110.38252066 216.48080989 110 220 C109.67 220.66 109.34 221.32 109 222 C107.41677806 222.02804921 105.833393 222.04684498 104.25 222.0625 C103.36828125 222.07410156 102.4865625 222.08570313 101.578125 222.09765625 C98.64305325 222.01755058 95.81597427 221.79312923 92.8984375 221.50390625 C84.64943493 220.78607457 76.40052991 220.85040866 68.12695312 220.86962891 C65.37364227 220.87500265 62.62049351 220.86964784 59.8671875 220.86328125 C58.08593715 220.86394193 56.30468689 220.86522288 54.5234375 220.8671875 C53.71587006 220.86516327 52.90830261 220.86313904 52.07626343 220.86105347 C47.07330887 220.88123629 42.17611848 221.21436095 37.20440674 221.77638245 C34.25474371 222.07559965 31.33785855 222.09695184 28.375 222.0625 C27.35148438 222.05347656 26.32796875 222.04445313 25.2734375 222.03515625 C24.52320313 222.02355469 23.77296875 222.01195312 23 222 C22.89163547 220.56416999 22.81423833 219.1259798 22.75 217.6875 C22.70359375 216.88699219 22.6571875 216.08648437 22.609375 215.26171875 C23 213 23 213 24.54296875 211.33984375 C27.74667691 209.5928296 31.04140115 208.72386665 34.5625 207.875 C39.81822339 206.56934443 39.81822339 206.56934443 45 205 C44.86230051 194.60898471 40.6904064 185.7795043 36.8125 176.3125 C36.14399236 174.65477624 35.47666634 172.99657546 34.81054688 171.33789062 C33.56169174 168.23307872 32.30594688 165.13126341 31.04223633 162.0324707 C28.33652152 155.36505896 25.67234295 148.68085737 23 142 C-2.08 141.67 -27.16 141.34 -53 141 C-53.99 143.97 -54.98 146.94 -56 150 C-56.60347418 151.60680322 -57.22252795 153.208017 -57.86938477 154.79785156 C-58.20305557 155.62190491 -58.53672638 156.44595825 -58.88050842 157.29498291 C-59.23060471 158.1515448 -59.58070099 159.00810669 -59.94140625 159.890625 C-60.30975082 160.79826599 -60.6780954 161.70590698 -61.05760193 162.64105225 C-62.22328238 165.5117742 -63.39279945 168.38091406 -64.5625 171.25 C-65.35117131 173.18999855 -66.13958509 175.13010181 -66.92773438 177.0703125 C-68.37021727 180.6207747 -69.81435654 184.17055419 -71.26000977 187.71972656 C-71.71673065 188.84511589 -71.71673065 188.84511589 -72.18267822 189.99324036 C-72.85620222 191.64693517 -73.53967504 193.29657439 -74.22583008 194.94506836 C-75.07841451 197.20814094 -75.20656639 198.90629161 -75.125 201.3125 C-75.08375 202.529375 -75.0425 203.74625 -75 205 C-68.34557639 207.29462883 -61.64674265 209.22538577 -54.84375 211.03515625 C-52 212 -52 212 -51 214 C-50.76923077 219.53846154 -50.76923077 219.53846154 -52 222 C-56.38785901 222.06964856 -60.49386427 222.06512587 -64.85546875 221.50390625 C-71.67352147 220.71127327 -78.52102922 220.85030818 -85.375 220.875 C-86.07955322 220.87588623 -86.78410645 220.87677246 -87.51000977 220.87768555 C-98.696733 220.89421327 -109.84024555 221.1946569 -121 222 C-121.08090971 220.37581255 -121.13914995 218.75048255 -121.1875 217.125 C-121.22230469 216.22007812 -121.25710938 215.31515625 -121.29296875 214.3828125 C-121.19628906 213.59648437 -121.09960938 212.81015625 -121 212 C-116.96001705 209.30667803 -112.65214137 208.62178539 -107.98046875 207.58789062 C-101.84447438 206.15387332 -97.63395831 204.36511444 -94 199 C-93.17060466 197.2667231 -92.40007322 195.50472807 -91.671875 193.7265625 C-91.21441895 192.62111084 -90.75696289 191.51565918 -90.28564453 190.37670898 C-90.03832581 189.77220917 -89.79100708 189.16770935 -89.53619385 188.54489136 C-88.11318625 185.06989598 -86.66841692 181.60392637 -85.2265625 178.13671875 C-84.90247406 177.35621658 -84.57838562 176.57571442 -84.24447632 175.77156067 C-79.61034926 164.62962452 -74.85993233 153.53685786 -70.125 142.4375 C-69.12917187 140.1017508 -68.13340428 137.76597578 -67.13769531 135.43017578 C-65.1041976 130.66016693 -63.07029177 125.89033237 -61.03613281 121.12060547 C-57.13717959 111.97749627 -53.24248286 102.83257555 -49.34814453 93.6875 C-47.45665294 89.24576908 -45.56436112 84.80438043 -43.67138672 80.36328125 C-39.16326656 69.78540074 -34.66064303 59.20525562 -30.17456055 48.61801147 C-28.30744192 44.21168525 -26.43792523 39.8063777 -24.56787109 35.40129662 C-23.28954683 32.38956347 -22.01306409 29.37706942 -20.73901367 26.36352539 C-19.33453871 23.04171195 -17.92556792 19.72183923 -16.515625 16.40234375 C-16.1010907 15.41854233 -15.6865564 14.43474091 -15.25946045 13.42112732 C-9.46934844 -0.1753583 -9.46934844 -0.1753583 0 0 Z " fill="#FCFCFE" transform="translate(540,151)"/>
<path d="M0 0 C0.66 0 1.32 0 2 0 C20.64473093 46.8678457 20.64473093 46.8678457 27.6875 65.3125 C28.13778564 66.48256592 28.58807129 67.65263184 29.05200195 68.8581543 C29.4512085 69.91172119 29.85041504 70.96528809 30.26171875 72.05078125 C30.60162842 72.94450439 30.94153809 73.83822754 31.29174805 74.7590332 C32 77 32 77 32 80 C10.88 80 -10.24 80 -32 80 C-20.58223252 50.31380455 -20.58223252 50.31380455 -15.71734619 38.64544678 C-14.23696505 35.09461301 -12.76761006 31.53921234 -11.296875 27.984375 C-11.01155914 27.29548187 -10.72624329 26.60658875 -10.43228149 25.89682007 C-6.8743771 17.29679635 -3.42344559 8.65430035 0 0 Z " fill="#2764EB" transform="translate(525,198)"/>
</svg>
